<?xml version="1.0" standalone="no"?>
<svg xmlns="http://www.w3.org/2000/svg" viewBox="0 0 1440 320">
    <path 
        fill=" #0292B7"
        fill-opacity="1" 
        d="M0,64L10,106.7C20,149,40,235,60,272C80,309,100,299,120,288C140,277,160,267,180,240C200,213,220,171,240,138.7C260,107,280,85,300,112C320,139,340,213,360,213.3C380,213,400,139,420,128C440,117,460,171,480,176C500,181,520,139,540,112C560,85,580,75,600,69.3C620,64,640,64,660,101.3C680,139,700,213,720,229.3C740,245,760,203,780,165.3C800,128,820,96,840,101.3C860,107,880,149,900,181.3C920,213,940,235,960,240C980,245,1000,235,1020,229.3C1040,224,1060,224,1080,208C1100,192,1120,160,1140,144C1160,128,1180,128,1200,128C1220,128,1240,128,1260,160C1280,192,1300,256,1320,250.7C1340,245,1360,171,1380,149.3C1400,128,1420,160,1430,176L1440,192L1440,320L1430,320C1420,320,1400,320,1380,320C1360,320,1340,320,1320,320C1300,320,1280,320,1260,320C1240,320,1220,320,1200,320C1180,320,1160,320,1140,320C1120,320,1100,320,1080,320C1060,320,1040,320,1020,320C1000,320,980,320,960,320C940,320,920,320,900,320C880,320,860,320,840,320C820,320,800,320,780,320C760,320,740,320,720,320C700,320,680,320,660,320C640,320,620,320,600,320C580,320,560,320,540,320C520,320,500,320,480,320C460,320,440,320,420,320C400,320,380,320,360,320C340,320,320,320,300,320C280,320,260,320,240,320C220,320,200,320,180,320C160,320,140,320,120,320C100,320,80,320,60,320C40,320,20,320,10,320L0,320Z">
    </path>
</svg>